<svg preserveAspectRatio="none" width="100%" height="100%" overflow="visible" style="display: block;" viewBox="0 0 153 41" fill="none" xmlns="http://www.w3.org/2000/svg">
<g id="Layer_1-2">
<path id="Vector" d="M4.47047 6.27621L4.64969 30.0276L7.10864 32.2403V32.5568H0L0 32.2403L1.96766 30.0731L2.14688 2.98117L0.313322 0.316527V6.18243e-05H4.15841L23.1582 27.2275L22.979 2.48242L20.5201 0.315261V6.18243e-05H27.6287V0.316527L25.661 2.48368L25.4818 32.5568H22.7096L4.47047 6.27621Z" fill="var(--fill-0, white)"/>
<path id="Vector_2" d="M39.562 30.3883C43.2279 30.3883 45.7307 28.4464 47.0279 24.6539L48.8614 25.2413C47.6996 29.9376 44.0776 33.0073 38.9818 33.0073C32.4095 33.0073 27.9391 27.7692 27.9391 20.8158C27.9391 13.8624 32.1413 8.66988 38.7136 8.66988C46.2684 8.66988 48.9955 14.6308 48.6383 20.2297H31.3818V20.5462C31.3818 26.6869 35.0026 30.3895 39.5633 30.3895L39.562 30.3883ZM45.1943 18.3322C45.0151 14.0878 42.6464 10.6104 38.7123 10.6104C34.7782 10.6104 32.1852 13.9966 31.5598 18.3322H45.1943Z" fill="var(--fill-0, white)"/>
<path id="Vector_3" d="M49.4656 40.6377L51.0297 38.5149V12.2812L49.4656 10.0684V9.75198L54.2043 8.89373V13.861C55.5904 10.5647 58.765 8.6684 62.0724 8.6684C68.1521 8.6684 72.3544 13.7255 72.3544 20.8599C72.3544 27.9943 67.6608 33.0059 61.3568 33.0059C58.5406 33.0059 55.8586 31.7868 54.2043 29.3488V38.5149L56.395 40.6377V40.9985H49.4656V40.6377ZM68.9128 20.8612C68.9128 15.2623 66.0077 11.1077 61.536 11.1077C57.736 11.1077 54.6956 13.9977 54.2043 18.3776V24.6081C55.054 28.5817 57.647 31.0197 61.1337 31.0197C65.7383 31.0197 68.9128 26.6398 68.9128 20.8599V20.8612Z" fill="var(--fill-0, white)"/>
<path id="Vector_4" d="M75.5321 26.9558V11.1971H71.1957V9.52615C75.0846 9.25526 76.5159 8.3527 76.9182 3.61078H78.7066V9.11981L84.8766 8.84892L85.0107 11.1971H78.7066V27.0913C78.7066 29.7559 80.1818 30.7483 81.9702 30.7483C82.8638 30.7483 83.8476 30.6129 84.6084 30.0255L84.7876 31.6965C84.1171 32.3737 82.865 33.0054 81.2107 33.0054C77.902 33.0054 75.5333 31.1547 75.5333 26.9545L75.5321 26.9558Z" fill="var(--fill-0, white)"/>
<path id="Vector_5" d="M88.3714 25.0599V12.1912L86.8073 10.0683V9.75187L91.546 8.89362V24.6523C91.546 28.6259 93.7806 30.4778 96.821 30.4778C100.13 30.4778 102.946 27.9043 103.75 23.7498V12.1899L102.186 10.0671V9.75061L106.97 8.89235V30.1601L108.534 32.1918V32.5526H103.75V27.7664C102.409 30.9272 99.5482 33.0045 96.1505 33.0045C91.5911 33.0045 88.3714 30.1601 88.3714 25.0574V25.0599Z" fill="var(--fill-0, white)"/>
<path id="Vector_6" d="M110.084 32.1947L111.648 30.163V12.2815L110.084 10.0687V9.75227L114.823 8.89401V13.9056C116.209 10.7447 119.025 8.66742 122.468 8.66742C127.028 8.66742 130.247 11.5118 130.247 16.6145V30.1605L131.811 32.1922V32.553H125.508V32.1922L127.072 30.1605V17.0208C127.072 13.1372 124.881 11.1954 121.797 11.1954C118.488 11.1954 115.672 13.7688 114.823 17.9234V30.1605L116.387 32.1922V32.553H110.083V32.1922L110.084 32.1947Z" fill="var(--fill-0, white)"/>
<path id="Vector_7" d="M143.702 30.3883C147.368 30.3883 149.871 28.4464 151.168 24.6539L153.001 25.2413C151.84 29.9376 148.218 33.0073 143.122 33.0073C136.549 33.0073 132.079 27.7692 132.079 20.8158C132.079 13.8624 136.281 8.66988 142.853 8.66988C150.408 8.66988 153.135 14.6308 152.778 20.2297H135.522V20.5462C135.522 26.6869 139.142 30.3895 143.703 30.3895L143.702 30.3883ZM149.334 18.3322C149.155 14.0878 146.786 10.6104 142.852 10.6104C138.918 10.6104 136.325 13.9966 135.7 18.3322H149.334Z" fill="var(--fill-0, white)"/>
</g>
</svg>
