<svg preserveAspectRatio="none" width="100%" height="100%" overflow="visible" style="display: block;" viewBox="0 0 50 40" fill="none" xmlns="http://www.w3.org/2000/svg">
<g id="Layer_1-2">
<g id="Vector">
</g>
<path id="Vector_2" d="M26.134 39.9736C39.5164 39.3779 50 28.5019 50 15.2121V14.4988C50 14.3614 49.8869 14.2493 49.7484 14.2493H41.8211C41.5285 14.2493 41.2813 14.0382 41.2358 13.7492C39.9887 5.91119 33.0093 0 25 0C16.9907 0 10.0113 5.91119 8.7653 13.7492C8.71874 14.0393 8.47264 14.2493 8.17998 14.2493H0.251641C0.113072 14.2493 0 14.3614 0 14.4988V15.2121C0 28.5019 10.4835 39.3779 23.866 39.9736L24.0289 39.9802V40H26.0066L26.134 39.9736ZM37.265 9.88349C37.4091 9.80325 37.582 9.78567 37.7383 9.83403C37.8946 9.88349 38.0243 9.9956 38.0953 10.1429C38.634 11.264 39.022 12.4511 39.2504 13.6711C39.2803 13.8305 39.2415 13.9976 39.144 14.1284C39.0475 14.2581 38.9001 14.3438 38.7382 14.3625C35.0435 14.7879 31.5515 16.4685 28.9054 19.0943C28.8367 19.1625 28.7979 19.2581 28.7979 19.357V21.4366C28.7979 21.6004 28.9254 21.6575 28.9653 21.6718C29.0462 21.7004 29.1626 21.6949 29.2457 21.5938C31.6502 18.6514 35.0468 16.7696 38.8103 16.2948C38.9843 16.2739 39.1595 16.3289 39.2881 16.4465C39.4167 16.5641 39.4865 16.7311 39.4799 16.9048C39.1872 23.8855 33.6899 29.7604 26.695 30.5727C26.6717 30.5749 26.6484 30.577 26.6251 30.577C26.4799 30.577 26.338 30.5243 26.2283 30.4276C26.1019 30.3166 26.0298 30.1561 26.0298 29.989V13.6008C26.0298 13.2919 26.2748 13.0347 26.5874 13.0149C30.3787 12.7786 33.9704 11.7257 37.265 9.88239V9.88349ZM17.5051 4.00088C19.7621 2.64344 22.3528 1.9257 24.9989 1.9257C27.645 1.9257 30.2368 2.64344 32.4927 4.00088C32.6922 4.12069 32.8009 4.33942 32.7743 4.57024C32.7488 4.79886 32.5958 4.98681 32.3763 5.06045C29.9962 5.85293 27.4953 6.24863 24.9967 6.24863C22.498 6.24863 19.9982 5.85293 17.6204 5.06045C17.4009 4.98681 17.2479 4.79996 17.2224 4.57024C17.1969 4.33942 17.3045 4.12179 17.504 4.00088H17.5051ZM13.634 7.38954C13.9256 7.02462 14.236 6.6718 14.5552 6.34205C14.7226 6.17059 14.9854 6.11783 15.2115 6.21235C18.3088 7.51594 21.6001 8.17762 24.9956 8.17762C28.3911 8.17762 31.6857 7.51594 34.7863 6.21345C35.0113 6.11673 35.2751 6.17059 35.4425 6.34315C35.764 6.67509 36.0744 7.02792 36.3648 7.39063C36.4735 7.52583 36.5156 7.70059 36.4812 7.87096C36.4469 8.04133 36.3393 8.18751 36.1864 8.27215C32.7831 10.1484 28.9143 11.1398 25 11.1398H24.9601C21.058 11.1332 17.2036 10.1407 13.8125 8.27105C13.6595 8.18641 13.552 8.04023 13.5176 7.86986C13.4833 7.70059 13.5254 7.52583 13.634 7.38954ZM10.7485 13.67C10.9769 12.4511 11.3648 11.264 11.9036 10.1429C11.9745 9.9956 12.1042 9.88349 12.2606 9.83403C12.418 9.78567 12.5898 9.80325 12.7339 9.88349C16.0629 11.7454 19.6945 12.8017 23.5278 13.0226C23.8427 13.0402 24.0888 13.2974 24.0888 13.6085V21.0343C24.0888 21.2959 23.9258 21.5157 23.6742 21.5938C23.6132 21.6124 23.5522 21.6223 23.4913 21.6223C23.3017 21.6223 23.1243 21.5322 23.009 21.3684C20.2743 17.4621 15.9908 14.9077 11.2584 14.3625C11.0966 14.3438 10.9525 14.2614 10.8549 14.1295C10.7574 13.9987 10.7186 13.8316 10.7485 13.6711V13.67ZM25.7194 34.9648H24.2806C24.142 34.9648 24.0289 35.0769 24.0289 35.2143V37.4335C24.0289 37.5962 23.9602 37.7534 23.8405 37.8644C23.7318 37.9655 23.5877 38.0215 23.4392 38.0215C23.4259 38.0215 23.4126 38.0215 23.3993 38.0204C11.9845 37.2412 2.78468 28.1183 1.99761 16.8004C1.98652 16.641 2.04416 16.4816 2.15502 16.364C2.26698 16.2453 2.42551 16.1772 2.58957 16.1772H9.32512C17.1337 16.1772 23.5822 22.2291 24.0067 29.956C24.0167 30.1297 23.9491 30.2979 23.8205 30.4177C23.693 30.5375 23.5212 30.5935 23.346 30.5749C17.0827 29.8648 12.0366 25.2704 10.7917 19.1416C10.7684 19.0251 10.662 18.9415 10.5401 18.9415H9.08013C9.00474 18.9415 8.93491 18.9745 8.88613 19.0317C8.83846 19.0888 8.81851 19.1647 8.83181 19.2383C10.2596 26.9785 17.0595 32.5973 25 32.5973C29.3045 32.5973 33.3773 30.9519 36.4679 27.9644C39.5519 24.9824 41.3145 20.998 41.4309 16.7465C41.4398 16.4333 41.7047 16.1794 42.0229 16.1794H47.4115C47.5756 16.1794 47.7341 16.2475 47.8461 16.3662C47.9569 16.4838 48.0146 16.6432 48.0035 16.8026C47.2164 28.1205 38.0166 37.2422 26.6019 38.0226C26.4411 38.0336 26.2804 37.9765 26.1618 37.8666C26.042 37.7556 25.9733 37.5984 25.9733 37.4357V35.2165C25.9733 35.0791 25.8602 34.967 25.7217 34.967L25.7194 34.9648Z" fill="var(--fill-0, white)"/>
</g>
</svg>
